<svg id="Component_7_2" data-name="Component 7 – 2" xmlns="http://www.w3.org/2000/svg" width="50" height="47" viewBox="0 0 50 47">
  <g id="Component_6_1" data-name="Component 6 – 1">
    <rect id="Rectangle_1" data-name="Rectangle 1" width="50" height="47" fill="#00afd3"/>
  </g>
  <g id="Group_41" data-name="Group 41" transform="translate(0 -374)">
    <g id="Shared_360" data-name="Shared 360" transform="translate(8 384.184)">
      <g id="Group_40" data-name="Group 40">
        <g id="Group_33" data-name="Group 33">
          <g id="Group_32" data-name="Group 32">
            <g id="Group_31" data-name="Group 31">
              <g id="Group_30" data-name="Group 30">
                <g id="Group_29" data-name="Group 29">
                  <g id="Group_28" data-name="Group 28">
                    <g id="Group_27" data-name="Group 27">
                      <g id="Group_26" data-name="Group 26">
                        <path id="Path_13" data-name="Path 13" d="M4251,3425.7a13.638,13.638,0,0,1,0-27.277.415.415,0,0,1,0,.83,12.808,12.808,0,1,0,12.809,12.81.415.415,0,0,1,.83,0A13.652,13.652,0,0,1,4251,3425.7Z" transform="translate(-4237.36 -3398.424)" fill="#fff"/>
                      </g>
                    </g>
                  </g>
                </g>
              </g>
            </g>
          </g>
        </g>
        <g id="Group_34" data-name="Group 34" transform="translate(22.445 12.223)">
          <path id="Path_14" data-name="Path 14" d="M4264.4,3417.369a.425.425,0,0,1,.13-.377l3.985-3.729a.428.428,0,0,1,.6.02l3.729,3.987a.426.426,0,1,1-.623.582l-3.437-3.676-3.675,3.439a.425.425,0,0,1-.711-.245Z" transform="translate(-4264.396 -3413.148)" fill="#fff"/>
        </g>
        <g id="Group_35" data-name="Group 35" transform="translate(17.719 1.08)">
          <path id="Path_15" data-name="Path 15" d="M4262.413,3404.268a.885.885,0,0,0-.478-.414,2.437,2.437,0,0,0-.891-.134h-.628a.545.545,0,0,1-.174-.02.119.119,0,0,1-.075-.08.726.726,0,0,1-.02-.2v-.339a.677.677,0,0,1,.02-.189.119.119,0,0,1,.075-.08.594.594,0,0,1,.185-.02h.567a1.433,1.433,0,0,0,1.036-.314,1.065,1.065,0,0,0,.319-.792.948.948,0,0,0-.309-.762,1.451,1.451,0,0,0-.956-.264,2.184,2.184,0,0,0-1.215.329l-.17.11a.35.35,0,0,1-.2.1c-.094,0-.206-.08-.34-.239a1.522,1.522,0,0,1-.154-.194.287.287,0,0,1-.055-.154c0-.125.124-.269.369-.428a2.814,2.814,0,0,1,.776-.344,4.072,4.072,0,0,1,1.057-.115,3.063,3.063,0,0,1,1.18.209,1.7,1.7,0,0,1,.781.628,1.974,1.974,0,0,1-.024,2.062,1.533,1.533,0,0,1-1.041.588v.02a1.788,1.788,0,0,1,1.165.543,1.881,1.881,0,0,1,.389,1.28,2.207,2.207,0,0,1-.593,1.619,2.464,2.464,0,0,1-1.828.6,4.529,4.529,0,0,1-1.1-.125,2.471,2.471,0,0,1-.9-.433,1.579,1.579,0,0,1-.349-.329.5.5,0,0,1-.129-.279c0-.086.082-.206.248-.359a2.675,2.675,0,0,1,.225-.179.26.26,0,0,1,.144-.05q.069,0,.209.14a1.818,1.818,0,0,0,.682.493,2.188,2.188,0,0,0,.882.185,1.537,1.537,0,0,0,1.106-.349,1.339,1.339,0,0,0,.357-1.006A1.54,1.54,0,0,0,4262.413,3404.268Z" transform="translate(-4258.704 -3399.725)" fill="#fff"/>
          <path id="Path_16" data-name="Path 16" d="M4268.019,3400.841a1.118,1.118,0,0,0-.523.6,2.973,2.973,0,0,0-.175,1.125c0,.053-.007.153-.021.3h.021c.006-.006.035-.043.084-.109a.58.58,0,0,1,.154-.149,1.766,1.766,0,0,1,.613-.354,2.6,2.6,0,0,1,.792-.1,2.26,2.26,0,0,1,1.22.314,1.922,1.922,0,0,1,.752.876,3.213,3.213,0,0,1,.249,1.31,2.818,2.818,0,0,1-.618,1.958,2.746,2.746,0,0,1-3.641-.015,3.144,3.144,0,0,1-.652-2.2v-1.574a5.245,5.245,0,0,1,.224-1.649,2,2,0,0,1,.787-1.056,2.717,2.717,0,0,1,1.548-.384,5.831,5.831,0,0,1,.892.06,3.537,3.537,0,0,1,.762.209.834.834,0,0,1,.274.159.254.254,0,0,1,.094.179.872.872,0,0,1-.1.358,1.28,1.28,0,0,1-.125.214.175.175,0,0,1-.144.054.808.808,0,0,1-.289-.08,3.816,3.816,0,0,0-.562-.159,3.706,3.706,0,0,0-.723-.06A1.95,1.95,0,0,0,4268.019,3400.841Zm1.568,5.28a1.115,1.115,0,0,0,.428-.573,2.812,2.812,0,0,0,.125-.9,1.743,1.743,0,0,0-.343-1.161,1.231,1.231,0,0,0-.992-.4,1.447,1.447,0,0,0-1.07.383,1.608,1.608,0,0,0-.384,1.181,1.976,1.976,0,0,0,.349,1.285,1.3,1.3,0,0,0,1.056.419A1.557,1.557,0,0,0,4269.586,3406.121Z" transform="translate(-4259.989 -3399.725)" fill="#fff"/>
          <path id="Path_17" data-name="Path 17" d="M4273.8,3401.15a1.993,1.993,0,0,1,.762-1.066,2.5,2.5,0,0,1,1.424-.359h.2a2.482,2.482,0,0,1,1.42.364,2.02,2.02,0,0,1,.767,1.066,5.773,5.773,0,0,1,.234,1.788v1.136a5.67,5.67,0,0,1-.239,1.788,2.008,2.008,0,0,1-.773,1.061,2.475,2.475,0,0,1-1.408.359H4276a2.526,2.526,0,0,1-1.44-.364,1.986,1.986,0,0,1-.762-1.071,5.906,5.906,0,0,1-.229-1.783v-1.126A5.81,5.81,0,0,1,4273.8,3401.15Zm.932,4.194a1.42,1.42,0,0,0,.4.752,1.147,1.147,0,0,0,.792.254h.309a1.183,1.183,0,0,0,.8-.249,1.378,1.378,0,0,0,.408-.752,5.887,5.887,0,0,0,.119-1.31v-1.066a5.878,5.878,0,0,0-.119-1.31,1.378,1.378,0,0,0-.408-.752,1.179,1.179,0,0,0-.8-.249h-.309a1.16,1.16,0,0,0-.792.249,1.4,1.4,0,0,0-.4.752,5.756,5.756,0,0,0-.12,1.31v1.066A5.7,5.7,0,0,0,4274.736,3405.344Z" transform="translate(-4261.229 -3399.725)" fill="#fff"/>
        </g>
        <g id="Group_39" data-name="Group 39" transform="translate(6.577 5.294)">
          <path id="Path_18" data-name="Path 18" d="M4249.618,3411.814a3.986,3.986,0,0,1,.038-.52,3.1,3.1,0,0,1,.894-6.1,3.17,3.17,0,0,1,3.143,2.6l.05,0c.123,0,.244.007.364.018a3.6,3.6,0,0,0-7.154.5,3.515,3.515,0,0,0,2.311,3.272,5.168,5.168,0,0,0-3.98,4.977v1.155a.2.2,0,0,0,.406,0v-1.155a4.78,4.78,0,0,1,3.935-4.652C4249.622,3411.875,4249.618,3411.846,4249.618,3411.814Z" transform="translate(-4245.283 -3404.801)" fill="#fff" stroke="#fff" stroke-linecap="round" stroke-linejoin="round" stroke-width="0.689"/>
          <g id="Group_38" data-name="Group 38" transform="translate(3.896 4.387)">
            <g id="Group_36" data-name="Group 36" transform="translate(1.67)">
              <g id="Path_19" data-name="Path 19" transform="translate(-4251.987 -3410.086)" fill="#fff">
                <path d="M 4255.583984375 3417.275146484375 C 4253.505859375 3417.275146484375 4251.81494140625 3415.624267578125 4251.81494140625 3413.5947265625 C 4251.81494140625 3411.565185546875 4253.505859375 3409.914306640625 4255.583984375 3409.914306640625 C 4257.6630859375 3409.914306640625 4259.3544921875 3411.565185546875 4259.3544921875 3413.5947265625 C 4259.3544921875 3415.624267578125 4257.6630859375 3417.275146484375 4255.583984375 3417.275146484375 Z M 4255.583984375 3410.655517578125 C 4253.92041015625 3410.655517578125 4252.5673828125 3411.97412109375 4252.5673828125 3413.5947265625 C 4252.5673828125 3415.21533203125 4253.92041015625 3416.533935546875 4255.583984375 3416.533935546875 C 4257.24853515625 3416.533935546875 4258.6025390625 3415.21533203125 4258.6025390625 3413.5947265625 C 4258.6025390625 3411.97412109375 4257.24853515625 3410.655517578125 4255.583984375 3410.655517578125 Z" stroke="none"/>
                <path d="M 4255.583984375 3417.10302734375 C 4257.568359375 3417.10302734375 4259.18212890625 3415.529296875 4259.18212890625 3413.5947265625 C 4259.18212890625 3411.66015625 4257.568359375 3410.08642578125 4255.583984375 3410.08642578125 C 4253.6015625 3410.08642578125 4251.9873046875 3411.66015625 4251.9873046875 3413.5947265625 C 4251.9873046875 3415.529296875 4253.6015625 3417.10302734375 4255.583984375 3417.10302734375 M 4255.583984375 3410.4833984375 C 4257.34375 3410.4833984375 4258.77490234375 3411.8798828125 4258.77490234375 3413.5947265625 C 4258.77490234375 3415.310546875 4257.34375 3416.7060546875 4255.583984375 3416.7060546875 C 4253.826171875 3416.7060546875 4252.39501953125 3415.310546875 4252.39501953125 3413.5947265625 C 4252.39501953125 3411.8798828125 4253.826171875 3410.4833984375 4255.583984375 3410.4833984375 M 4255.583984375 3417.447265625 C 4253.4111328125 3417.447265625 4251.64306640625 3415.718994140625 4251.64306640625 3413.5947265625 C 4251.64306640625 3411.470458984375 4253.4111328125 3409.7421875 4255.583984375 3409.7421875 C 4257.7578125 3409.7421875 4259.5263671875 3411.470458984375 4259.5263671875 3413.5947265625 C 4259.5263671875 3415.718994140625 4257.7578125 3417.447265625 4255.583984375 3417.447265625 Z M 4255.583984375 3410.82763671875 C 4254.015625 3410.82763671875 4252.7392578125 3412.069091796875 4252.7392578125 3413.5947265625 C 4252.7392578125 3415.120361328125 4254.015625 3416.36181640625 4255.583984375 3416.36181640625 C 4257.15380859375 3416.36181640625 4258.4306640625 3415.120361328125 4258.4306640625 3413.5947265625 C 4258.4306640625 3412.069091796875 4257.15380859375 3410.82763671875 4255.583984375 3410.82763671875 Z" stroke="none" fill="#fff"/>
              </g>
            </g>
            <g id="Group_37" data-name="Group 37" transform="translate(0 6.62)">
              <g id="Path_20" data-name="Path 20" transform="translate(-4249.975 -3418.06)" fill="#fff">
                <path d="M 4250.17919921875 3424.724365234375 C 4249.9716796875 3424.724365234375 4249.802734375 3424.5576171875 4249.802734375 3424.352783203125 L 4249.802734375 3423.197509765625 C 4249.802734375 3420.27001953125 4252.2431640625 3417.88818359375 4255.2421875 3417.88818359375 C 4256.53369140625 3417.88818359375 4257.78564453125 3418.337158203125 4258.76708984375 3419.15234375 C 4258.8447265625 3419.217041015625 4258.89111328125 3419.30712890625 4258.89892578125 3419.40625 C 4258.9072265625 3419.505615234375 4258.875 3419.602294921875 4258.80908203125 3419.67822265625 C 4258.7392578125 3419.760009765625 4258.63525390625 3419.8076171875 4258.52490234375 3419.8076171875 C 4258.43603515625 3419.8076171875 4258.349609375 3419.776123046875 4258.2822265625 3419.71923828125 C 4257.4365234375 3419.0166015625 4256.3564453125 3418.629150390625 4255.2421875 3418.629150390625 C 4252.65771484375 3418.629150390625 4250.55517578125 3420.678466796875 4250.55517578125 3423.197509765625 L 4250.55517578125 3424.352783203125 C 4250.55517578125 3424.5576171875 4250.38623046875 3424.724365234375 4250.17919921875 3424.724365234375 Z" stroke="none"/>
                <path d="M 4250.17919921875 3424.55224609375 C 4250.29150390625 3424.55224609375 4250.3828125 3424.46337890625 4250.3828125 3424.352783203125 L 4250.3828125 3423.197509765625 C 4250.3828125 3420.583984375 4252.5625 3418.45703125 4255.2421875 3418.45703125 C 4256.39697265625 3418.45703125 4257.515625 3418.858642578125 4258.39306640625 3419.587646484375 C 4258.43115234375 3419.61962890625 4258.47802734375 3419.63525390625 4258.52490234375 3419.63525390625 C 4258.58251953125 3419.63525390625 4258.6396484375 3419.611572265625 4258.67919921875 3419.565185546875 C 4258.751953125 3419.4814453125 4258.74267578125 3419.356201171875 4258.6572265625 3419.28466796875 C 4257.70654296875 3418.4951171875 4256.49365234375 3418.060302734375 4255.2421875 3418.060302734375 C 4252.33837890625 3418.060302734375 4249.97509765625 3420.364501953125 4249.97509765625 3423.197509765625 L 4249.97509765625 3424.352783203125 C 4249.97509765625 3424.46337890625 4250.06640625 3424.55224609375 4250.17919921875 3424.55224609375 M 4250.17919921875 3424.896484375 C 4249.876953125 3424.896484375 4249.630859375 3424.652587890625 4249.630859375 3424.352783203125 L 4249.630859375 3423.197509765625 C 4249.630859375 3420.175048828125 4252.14794921875 3417.7158203125 4255.2421875 3417.7158203125 C 4256.57373046875 3417.7158203125 4257.86474609375 3418.178955078125 4258.87744140625 3419.019775390625 C 4258.99072265625 3419.114990234375 4259.05908203125 3419.2470703125 4259.07080078125 3419.392578125 C 4259.08251953125 3419.53857421875 4259.03564453125 3419.679931640625 4258.93896484375 3419.791015625 C 4258.83740234375 3419.91015625 4258.685546875 3419.979736328125 4258.52490234375 3419.979736328125 C 4258.3955078125 3419.979736328125 4258.27001953125 3419.93408203125 4258.17138671875 3419.85107421875 C 4257.35693359375 3419.174560546875 4256.31640625 3418.801513671875 4255.2421875 3418.801513671875 C 4252.75244140625 3418.801513671875 4250.72705078125 3420.7734375 4250.72705078125 3423.197509765625 L 4250.72705078125 3424.352783203125 C 4250.72705078125 3424.652587890625 4250.4814453125 3424.896484375 4250.17919921875 3424.896484375 Z" stroke="none" fill="#fff"/>
              </g>
            </g>
          </g>
        </g>
      </g>
    </g>
  </g>
</svg>
