<svg id="_360_icon" data-name="360 icon" xmlns="http://www.w3.org/2000/svg" width="54.282" height="42.182" viewBox="0 0 54.282 42.182">
  <g id="Group_25" data-name="Group 25">
    <g id="Group_21" data-name="Group 21" transform="translate(0)">
      <g id="Group_20" data-name="Group 20">
        <g id="Group_19" data-name="Group 19">
          <g id="Group_18" data-name="Group 18">
            <g id="Group_17" data-name="Group 17">
              <g id="Group_16" data-name="Group 16">
                <g id="Group_15" data-name="Group 15">
                  <g id="Group_14" data-name="Group 14">
                    <path id="Path_7" data-name="Path 7" d="M4061.983,3440.605a21.091,21.091,0,0,1,0-42.182.642.642,0,0,1,0,1.284,19.807,19.807,0,1,0,19.809,19.81.642.642,0,1,1,1.284,0A21.113,21.113,0,0,1,4061.983,3440.605Z" transform="translate(-4040.893 -3398.424)" fill="#fff"/>
                  </g>
                </g>
              </g>
            </g>
          </g>
        </g>
      </g>
    </g>
    <g id="Group_22" data-name="Group 22" transform="translate(34.71 18.902)">
      <path id="Path_8" data-name="Path 8" d="M4067.938,3419.676a.661.661,0,0,1,.2-.584l6.164-5.767a.66.66,0,0,1,.932.031l5.767,6.166a.659.659,0,1,1-.964.9l-5.315-5.685-5.682,5.318a.659.659,0,0,1-1.1-.379Z" transform="translate(-4067.93 -3413.147)" fill="#fff"/>
    </g>
    <g id="Group_23" data-name="Group 23" transform="translate(27.4 1.67)">
      <path id="Path_9" data-name="Path 9" d="M4067.974,3406.75a1.375,1.375,0,0,0-.74-.64,3.769,3.769,0,0,0-1.377-.208h-.972a.84.84,0,0,1-.27-.031.183.183,0,0,1-.115-.123,1.072,1.072,0,0,1-.03-.308v-.524a1,1,0,0,1,.03-.292.182.182,0,0,1,.115-.123.91.91,0,0,1,.286-.031h.877a2.22,2.22,0,0,0,1.6-.485,1.644,1.644,0,0,0,.493-1.224,1.466,1.466,0,0,0-.478-1.179,2.242,2.242,0,0,0-1.479-.408,3.377,3.377,0,0,0-1.878.508l-.262.169a.54.54,0,0,1-.309.154q-.216,0-.524-.37a2.263,2.263,0,0,1-.237-.3.445.445,0,0,1-.086-.239c0-.194.191-.416.57-.663a4.366,4.366,0,0,1,1.2-.531,6.306,6.306,0,0,1,1.633-.177,4.739,4.739,0,0,1,1.826.323,2.622,2.622,0,0,1,1.209.971,3.047,3.047,0,0,1-.038,3.189,2.37,2.37,0,0,1-1.609.909v.03a2.761,2.761,0,0,1,1.8.84,2.916,2.916,0,0,1,.6,1.979,3.414,3.414,0,0,1-.918,2.5,3.809,3.809,0,0,1-2.825.932,7.01,7.01,0,0,1-1.7-.193,3.828,3.828,0,0,1-1.393-.67,2.471,2.471,0,0,1-.539-.508.782.782,0,0,1-.2-.431q0-.2.385-.555a4.1,4.1,0,0,1,.348-.277.4.4,0,0,1,.222-.077q.108,0,.323.216a2.816,2.816,0,0,0,1.055.762,3.389,3.389,0,0,0,1.364.286,2.373,2.373,0,0,0,1.71-.54,2.072,2.072,0,0,0,.554-1.556A2.4,2.4,0,0,0,4067.974,3406.75Z" transform="translate(-4062.236 -3399.725)" fill="#fff"/>
      <path id="Path_10" data-name="Path 10" d="M4072.5,3401.45a1.746,1.746,0,0,0-.81.924,4.635,4.635,0,0,0-.27,1.741c0,.082-.009.236-.029.462h.029c.01-.01.054-.067.132-.169a.913.913,0,0,1,.237-.231,2.761,2.761,0,0,1,.949-.547,4.022,4.022,0,0,1,1.225-.162,3.5,3.5,0,0,1,1.887.485,2.978,2.978,0,0,1,1.163,1.356,4.974,4.974,0,0,1,.385,2.026,4.355,4.355,0,0,1-.957,3.027,4.246,4.246,0,0,1-5.63-.023,4.852,4.852,0,0,1-1.009-3.4V3404.5a8.1,8.1,0,0,1,.347-2.55,3.1,3.1,0,0,1,1.215-1.633,4.211,4.211,0,0,1,2.4-.593,9.079,9.079,0,0,1,1.378.092,5.52,5.52,0,0,1,1.179.324,1.319,1.319,0,0,1,.424.246.394.394,0,0,1,.146.277,1.34,1.34,0,0,1-.154.555,1.979,1.979,0,0,1-.192.331.275.275,0,0,1-.224.085,1.249,1.249,0,0,1-.447-.124,5.936,5.936,0,0,0-.872-.246,5.7,5.7,0,0,0-1.117-.092A3.023,3.023,0,0,0,4072.5,3401.45Zm2.427,8.165a1.709,1.709,0,0,0,.661-.886,4.3,4.3,0,0,0,.194-1.394,2.7,2.7,0,0,0-.532-1.795,1.9,1.9,0,0,0-1.534-.624,2.243,2.243,0,0,0-1.656.593,2.492,2.492,0,0,0-.592,1.826,3.063,3.063,0,0,0,.538,1.987,2.01,2.01,0,0,0,1.634.647A2.4,2.4,0,0,0,4074.93,3409.615Z" transform="translate(-4060.087 -3399.725)" fill="#fff"/>
      <path id="Path_11" data-name="Path 11" d="M4077.466,3401.927a3.07,3.07,0,0,1,1.179-1.648,3.861,3.861,0,0,1,2.2-.555h.308a3.834,3.834,0,0,1,2.2.563,3.121,3.121,0,0,1,1.187,1.648,8.943,8.943,0,0,1,.362,2.766v1.756a8.761,8.761,0,0,1-.37,2.766,3.111,3.111,0,0,1-1.2,1.64,3.838,3.838,0,0,1-2.179.555h-.294a3.907,3.907,0,0,1-2.226-.562,3.071,3.071,0,0,1-1.179-1.656,9.1,9.1,0,0,1-.353-2.757V3404.7A8.932,8.932,0,0,1,4077.466,3401.927Zm1.44,6.486a2.2,2.2,0,0,0,.623,1.163,1.774,1.774,0,0,0,1.225.393h.478a1.824,1.824,0,0,0,1.232-.385,2.122,2.122,0,0,0,.631-1.163,9.049,9.049,0,0,0,.185-2.026v-1.648a9.044,9.044,0,0,0-.185-2.025,2.122,2.122,0,0,0-.631-1.164,1.824,1.824,0,0,0-1.232-.385h-.478a1.8,1.8,0,0,0-1.225.385,2.172,2.172,0,0,0-.623,1.164,8.951,8.951,0,0,0-.186,2.025v1.648A8.848,8.848,0,0,0,4078.906,3408.413Z" transform="translate(-4058.017 -3399.725)" fill="#fff"/>
    </g>
    <g id="Group_24" data-name="Group 24" transform="translate(18.208 14.61)">
      <path id="Path_12" data-name="Path 12" d="M4055.718,3422.765a.641.641,0,0,1-.642-.642v-11.676a.642.642,0,0,1,1.027-.514l7.79,5.838a.642.642,0,0,1,0,1.027l-7.79,5.837A.635.635,0,0,1,4055.718,3422.765Zm.642-11.036v9.111l6.078-4.555Z" transform="translate(-4055.076 -3409.804)" fill="#fff"/>
    </g>
  </g>
</svg>
