<svg id="Component_28_1" data-name="Component 28 – 1" xmlns="http://www.w3.org/2000/svg" width="49" height="45" viewBox="0 0 49 45">
  <g id="Component_31_1" data-name="Component 31 – 1">
    <rect id="Rectangle_29" data-name="Rectangle 29" width="49" height="45" fill="none"/>
    <g id="Group_25" data-name="Group 25" transform="translate(-0.259 -1.831)">
      <path id="Path_19" data-name="Path 19" d="M40.073,29.089a.5.5,0,0,0-.707,0l-6.988,6.988V11.331a.5.5,0,1,0-1,0V36.077l-6.99-6.988a.5.5,0,1,0-.707.707l7.843,7.841a.5.5,0,0,0,.545.109.518.518,0,0,0,.163-.109L40.073,29.8A.5.5,0,0,0,40.073,29.089Z" fill="#514051"/>
    </g>
    <path id="Path_19-2" data-name="Path 19" d="M24.443,19.671a.5.5,0,0,0,.353-.854l-7.841-7.839a.518.518,0,0,0-.163-.109.5.5,0,0,0-.545.109L8.4,18.817a.5.5,0,1,0,.707.707L16.1,12.538V37.284a.5.5,0,0,0,1,0V12.538l6.988,6.986A.5.5,0,0,0,24.443,19.671Z" transform="translate(-0.259 -1.831)" fill="#18c1d8" stroke="#00AFD3" stroke-width="1"/>
  </g>
</svg>
