<svg id="Component_27_2" data-name="Component 27 – 2" xmlns="http://www.w3.org/2000/svg" width="32" height="30" viewBox="0 0 32 30">
  <g id="Group_52" data-name="Group 52" transform="translate(-4758.636 -3388.932)">
    <path id="Path_21" data-name="Path 21" d="M4774.916,3400.994a.483.483,0,0,0,0-.693l-5.227-5.227a.483.483,0,0,0-.528-.1.5.5,0,0,0-.156.1l-5.227,5.224a.485.485,0,0,0-.019.667l.019.02a.485.485,0,0,0,.683,0l4.4-4.4v16.133a.484.484,0,0,0,.967,0v-16.134l4.4,4.4A.484.484,0,0,0,4774.916,3400.994Z" fill="#fff"/>
    <path id="Path_22" data-name="Path 22" d="M4785.114,3407.15a.478.478,0,0,0-.339-.147.463.463,0,0,0-.354.146l-4.406,4.4v-16.134a.483.483,0,1,0-.966,0v16.134l-4.4-4.4a.477.477,0,0,0-.342-.142.484.484,0,0,0-.342.825l5.228,5.226a.506.506,0,0,0,.157.1.478.478,0,0,0,.185.036.484.484,0,0,0,.342-.142l5.228-5.223a.483.483,0,0,0,.012-.684Z" fill="#fff"/>
  </g>
  <rect id="Rectangle_679" data-name="Rectangle 679" width="32" height="30" fill="none"/>
</svg>
