<svg id="interface_1_" data-name="interface (1)" xmlns="http://www.w3.org/2000/svg" width="22.333" height="22.333" viewBox="0 0 22.333 22.333">
  <g id="Group_65" data-name="Group 65" transform="translate(5.303 2.806)">
    <g id="Group_64" data-name="Group 64">
      <path id="Path_50" data-name="Path 50" d="M137.959,64.575a.841.841,0,0,0-1.19,0l-10.1,10.071-3.643-3.957a.842.842,0,0,0-1.238,1.14l4.237,4.6a.841.841,0,0,0,.6.271h.018a.843.843,0,0,0,.594-.245l10.718-10.69A.842.842,0,0,0,137.959,64.575Z" transform="translate(-121.568 -64.327)" fill="#1d355e"/>
    </g>
  </g>
  <g id="Group_67" data-name="Group 67">
    <g id="Group_66" data-name="Group 66">
      <path id="Path_51" data-name="Path 51" d="M21.491,10.325a.842.842,0,0,0-.842.842,9.483,9.483,0,1,1-9.483-9.483.842.842,0,1,0,0-1.683A11.167,11.167,0,1,0,22.333,11.167.842.842,0,0,0,21.491,10.325Z" fill="#1d355e"/>
    </g>
  </g>
</svg>
