<svg xmlns="http://www.w3.org/2000/svg" width="205.8" height="206.8" viewBox="0 0 205.8 206.8">
  <g id="Component_2_1" data-name="Component 2 – 1" transform="translate(7 7)">
    <path id="Path_3" data-name="Path 3" d="M161,141c-8.9,13.6-26,13.7-40.2,13.7H53.4V49.7h67.4c2.7,0,5.2,0,7.9.2,9.5.6,19.5,2.8,25.9,10.4A25.5,25.5,0,0,1,160.3,77c0,11.8-6.4,17.4-10.4,19.6a38.6,38.6,0,0,1-4.3,1.9,28.1,28.1,0,0,1,12.5,7.4c3,3,7.4,8.9,7.4,19.5A27.3,27.3,0,0,1,161,141M137.8,65c-5.2-3.3-11.3-3.3-17.1-3.3H68.4V94h54.9c6.9,0,14.1-.2,18.6-6.5a16.7,16.7,0,0,0,2.8-9.5,14.8,14.8,0,0,0-7-12.9m9.1,48.8c-5.1-7.3-13.5-7.7-21.6-7.7H68.4v36.5h56.8c7.7,0,15.8-.7,21.1-7.5a17,17,0,0,0,3.4-11,17,17,0,0,0-3-10.3" transform="translate(-7 -7)" fill="#fff"/>
    <ellipse id="Ellipse_3" data-name="Ellipse 3" cx="95.9" cy="96.4" rx="95.9" ry="96.4" fill="none" stroke="#fff" stroke-miterlimit="10" stroke-width="14"/>
  </g>
</svg>
