<svg id="computer" xmlns="http://www.w3.org/2000/svg" width="27" height="27" viewBox="0 0 27 27">
  <path id="Path_36" data-name="Path 36" d="M24.627,7.541H21.035A10.765,10.765,0,1,0,1.686,16.549L.049,20.978a.791.791,0,0,0,1.016,1.016l4.653-1.72a10.736,10.736,0,0,0,3.089,1.075v.694a2.376,2.376,0,0,0,2.373,2.373H22.39l3.354,2.433A.791.791,0,0,0,27,26.209V9.914a2.376,2.376,0,0,0-2.373-2.373ZM5.784,18.616a.792.792,0,0,0-.274.049l-3.381,1.25L3.309,16.72a.791.791,0,0,0-.092-.725A9.172,9.172,0,1,1,6.18,18.722a.791.791,0,0,0-.4-.106Zm19.634,6.042-2.307-1.673a.791.791,0,0,0-.464-.151H11.18a.792.792,0,0,1-.791-.791v-.522c.125,0,.25.007.376.007A10.77,10.77,0,0,0,21.4,9.123h3.223a.792.792,0,0,1,.791.791Z" fill="#1d355e"/>
  <path id="Path_37" data-name="Path 37" d="M88.549,139.215l2.163,1.6a.791.791,0,0,0,1.261-.637v-6.334a.791.791,0,0,0-1.261-.637l-2.163,1.6A2.271,2.271,0,0,0,86.33,133H81.268A2.27,2.27,0,0,0,79,135.268v3.48a2.27,2.27,0,0,0,2.268,2.268H86.33A2.271,2.271,0,0,0,88.549,139.215Zm1.842-.607L88.6,137.285v-.555l1.793-1.323Zm-9.809.14v-3.48a.686.686,0,0,1,.686-.686H86.33a.686.686,0,0,1,.686.686v3.48a.686.686,0,0,1-.686.686H81.268A.686.686,0,0,1,80.582,138.748Z" transform="translate(-74.834 -125.986)" fill="#1d355e"/>
</svg>
