<svg xmlns="http://www.w3.org/2000/svg" width="26" height="25" viewBox="0 0 26 25">
  <g id="date" transform="translate(-48 -48)" opacity="0.55">
    <path id="Path_38" data-name="Path 38" d="M72.5,50H70v-.5a1.5,1.5,0,1,0-3,0V50H65v-.5a1.5,1.5,0,0,0-3,0V50H60v-.5a1.5,1.5,0,0,0-3,0V50H54.5v-.5a1.5,1.5,0,0,0-3,0V50h-2A1.5,1.5,0,0,0,48,51.5v20A1.5,1.5,0,0,0,49.5,73h23A1.5,1.5,0,0,0,74,71.5v-20A1.5,1.5,0,0,0,72.5,50ZM68,49.5a.5.5,0,0,1,1,0v2a.5.5,0,0,1-1,0Zm-5,0a.5.5,0,0,1,1,0v2a.5.5,0,0,1-1,0Zm-5,0a.5.5,0,1,1,1,0v2a.5.5,0,1,1-1,0Zm-5.5,0a.5.5,0,0,1,1,0v2a.5.5,0,0,1-1,0ZM73,71.5a.5.5,0,0,1-.5.5h-23a.5.5,0,0,1-.5-.5V55H73ZM73,54H49V51.5a.5.5,0,0,1,.5-.5h2v.5a1.5,1.5,0,0,0,3,0V51H57v.5a1.5,1.5,0,0,0,3,0V51h2v.5a1.5,1.5,0,0,0,3,0V51h2v.5a1.5,1.5,0,1,0,3,0V51h2.5a.5.5,0,0,1,.5.5Z" fill="#1d355e"/>
    <path id="Path_39" data-name="Path 39" d="M168.55,211.128a.5.5,0,0,0,.463-.534,4.5,4.5,0,1,1,2.332,3.628l.918-1.037a.5.5,0,0,0-.283-.823l-2.866-.534a.5.5,0,0,0-.584.577l.547,3.155a.5.5,0,0,0,.867.246l.723-.817a5.5,5.5,0,1,0-2.65-4.324.492.492,0,0,0,.534.463Zm1.333,3.236-.246-1.421,1.291.241Z" transform="translate(-112.502 -146.974)" fill="#1d355e"/>
    <path id="Path_40" data-name="Path 40" d="M248.547,236.82a.5.5,0,0,0-.5.5v3a.5.5,0,0,0,.2.4l2,1.5a.5.5,0,1,0,.6-.8l-1.8-1.35v-2.75A.5.5,0,0,0,248.547,236.82Z" transform="translate(-187.544 -177.019)" fill="#1d355e"/>
    <path id="Path_41" data-name="Path 41" d="M336,384h1v1h-1Z" transform="translate(-270 -315)" fill="#1d355e"/>
    <path id="Path_42" data-name="Path 42" d="M368,384h1v1h-1Z" transform="translate(-300 -315)" fill="#1d355e"/>
    <path id="Path_43" data-name="Path 43" d="M400,384h1v1h-1Z" transform="translate(-330 -315)" fill="#1d355e"/>
  </g>
</svg>
