<svg id="Component_38_2" data-name="Component 38 – 2" xmlns="http://www.w3.org/2000/svg" width="38" height="38" viewBox="0 0 38 38">
  <g id="Component_35_1" data-name="Component 35 – 1" transform="translate(9 3)">
    <g id="Group_36" data-name="Group 36" transform="translate(-4640.458 -2806.618)">
      <g id="Group_32" data-name="Group 32">
        <path id="Path_24" data-name="Path 24" d="M4650.321,2826.928a5.3,5.3,0,0,1-5.059-5.5v-9.31a5.076,5.076,0,1,1,10.117,0v9.31A5.3,5.3,0,0,1,4650.321,2826.928Zm0-19.31a4.3,4.3,0,0,0-4.059,4.5v9.31a4.08,4.08,0,1,0,8.117,0v-9.31A4.3,4.3,0,0,0,4650.321,2807.618Z" fill="#2e2d2c"/>
      </g>
      <g id="Group_33" data-name="Group 33">
        <path id="Path_25" data-name="Path 25" d="M4650.32,2831.563a9.674,9.674,0,0,1-9.862-9.451v-2.331a.5.5,0,0,1,1,0v2.331a8.873,8.873,0,0,0,17.726,0v-2.331a.5.5,0,0,1,1,0v2.331A9.676,9.676,0,0,1,4650.32,2831.563Z" fill="#2e2d2c"/>
      </g>
      <g id="Group_34" data-name="Group 34">
        <path id="Path_26" data-name="Path 26" d="M4650.32,2839.018a.5.5,0,0,1-.5-.5v-7.455a.5.5,0,0,1,1,0v7.455A.5.5,0,0,1,4650.32,2839.018Z" fill="#2e2d2c"/>
      </g>
      <g id="Group_35" data-name="Group 35">
        <path id="Path_27" data-name="Path 27" d="M4654.879,2839.018h-9.117a.5.5,0,0,1,0-1h9.117a.5.5,0,0,1,0,1Z" fill="#2e2d2c"/>
      </g>
    </g>
    <g id="Group_37" data-name="Group 37" transform="translate(-4640.458 -2806.618)">
      <path id="Path_28" data-name="Path 28" d="M4654.879,2820.28h-9.117a.5.5,0,0,1,0-1h9.117a.5.5,0,0,1,0,1Z" fill="#2e2d2c"/>
    </g>
  </g>
  <rect id="Rectangle_33" data-name="Rectangle 33" width="38" height="38" fill="none"/>
</svg>
