<svg xmlns="http://www.w3.org/2000/svg" width="20.333" height="40.666" viewBox="0 0 20.333 40.666">
  <g id="time" transform="translate(-64)" opacity="0.55">
    <g id="Group_58" data-name="Group 58" transform="translate(64)">
      <g id="Group_57" data-name="Group 57">
        <path id="Path_34" data-name="Path 34" d="M80.275,139.861H75.861a1.7,1.7,0,0,1-1.694-1.694v-6.778a3.389,3.389,0,0,0-6.778,0v9.319a5.906,5.906,0,0,0,1.793,4.236H67.389a1.7,1.7,0,0,1-1.694-1.694v-14.4a.847.847,0,1,0-1.694,0v14.4a3.392,3.392,0,0,0,3.389,3.389h1.694v10.167H66.542a.847.847,0,1,0,0,1.694h6.778a.847.847,0,1,0,0-1.694H70.778V146.639h6.778v9.226a2.636,2.636,0,0,0,5.254.3l1.5-11.8a4.059,4.059,0,0,0-4.033-4.507Zm2.351,4.306-1.5,11.8a.941.941,0,0,1-1.876-.1V145.791a.847.847,0,0,0-.847-.847H73.319a4.241,4.241,0,0,1-4.236-4.236v-9.319a1.694,1.694,0,0,1,3.389,0v6.778a3.392,3.392,0,0,0,3.389,3.389h4.414a2.367,2.367,0,0,1,2.364,2.364A2.288,2.288,0,0,1,82.625,144.167Z" transform="translate(-64 -117.833)" fill="#1d355e"/>
        <path id="Path_35" data-name="Path 35" d="M110.9,8.472a4.236,4.236,0,1,0-4.236-4.236A4.241,4.241,0,0,0,110.9,8.472Zm0-6.778a2.542,2.542,0,1,1-2.542,2.542A2.544,2.544,0,0,1,110.9,1.694Z" transform="translate(-103.278)" fill="#1d355e"/>
      </g>
    </g>
  </g>
</svg>
