<svg xmlns="http://www.w3.org/2000/svg" width="30.927" height="30.958" viewBox="0 0 30.927 30.958">
  <g id="Component_17_14" data-name="Component 17 – 14" transform="translate(1.054 1.171)">
    <g id="Group_11" data-name="Group 11" transform="translate(-5242.909 -4896.768)">
      <path id="Path_10" data-name="Path 10" d="M5255.07,4913.339c2.845,2.844,6.138,5.564,7.437,4.261,1.865-1.862,3.014-3.487,7.122-.184s.953,5.5-.854,7.307c-2.083,2.085-9.848.111-17.523-7.564s-9.65-15.442-7.567-17.524c1.809-1.808,4.007-4.96,7.31-.853s1.679,5.258-.185,7.12C5249.508,4907.2,5252.226,4910.5,5255.07,4913.339Z" fill="none" stroke="#a3a1a1" stroke-linecap="round" stroke-linejoin="round" stroke-width="2"/>
    </g>
    <g id="Group_12" data-name="Group 12" transform="translate(-5242.909 -4896.768)">
      <path id="Path_11" data-name="Path 11" d="M5260.186,4902a4.7,4.7,0,0,1,6.3,6.052" fill="none" stroke="#a3a1a1" stroke-linecap="round" stroke-linejoin="round" stroke-width="2"/>
      <path id="Path_12" data-name="Path 12" d="M5258.2,4897.611a9.522,9.522,0,0,1,12.745,12.256" fill="none" stroke="#a3a1a1" stroke-linecap="round" stroke-linejoin="round" stroke-width="2"/>
    </g>
  </g>
</svg>
