<svg id="Component_37_2" data-name="Component 37 – 2" xmlns="http://www.w3.org/2000/svg" width="38" height="38" viewBox="0 0 38 38">
  <rect id="Rectangle_34" data-name="Rectangle 34" width="38" height="38" fill="none"/>
  <g id="Component_34_1" data-name="Component 34 – 1" transform="translate(4 7)">
    <g id="Group_29" data-name="Group 29" transform="translate(8.22 6.739)">
      <path id="Path_21" data-name="Path 21" d="M4748.89,1845.7a6.721,6.721,0,1,1,6.721-6.722A6.73,6.73,0,0,1,4748.89,1845.7Zm0-12.443a5.721,5.721,0,1,0,5.721,5.721A5.728,5.728,0,0,0,4748.89,1833.255Z" transform="translate(-4742.167 -1832.255)" fill="#2e2d2c"/>
    </g>
    <g id="Group_30" data-name="Group 30">
      <path id="Path_22" data-name="Path 22" d="M4760.437,1847.657h-26.092a1.879,1.879,0,0,1-1.9-1.856v-17.059a1.878,1.878,0,0,1,1.9-1.854h6.378l1.688-3.044a.457.457,0,0,1,.4-.233h9.158a.458.458,0,0,1,.4.233l1.688,3.044h6.379a1.877,1.877,0,0,1,1.9,1.854V1845.8A1.878,1.878,0,0,1,4760.437,1847.657Zm-26.092-19.881a.979.979,0,0,0-.989.965V1845.8a.98.98,0,0,0,.989.967h26.092a.979.979,0,0,0,.987-.967v-17.059a.978.978,0,0,0-.987-.965h-6.65a.457.457,0,0,1-.4-.233l-1.688-3.044h-8.618l-1.688,3.044a.456.456,0,0,1-.4.233Z" transform="translate(-4732.447 -1823.61)" fill="#2e2d2c"/>
    </g>
    <g id="Group_31" data-name="Group 31" transform="translate(13.284 11.976)">
      <path id="Path_23" data-name="Path 23" d="M4748.89,1840.634a1.658,1.658,0,1,1,1.657-1.658A1.66,1.66,0,0,1,4748.89,1840.634Zm0-2.315a.658.658,0,1,0,.657.657A.659.659,0,0,0,4748.89,1838.319Z" transform="translate(-4747.231 -1837.319)" fill="#2e2d2c"/>
    </g>
  </g>
</svg>
