<svg xmlns="http://www.w3.org/2000/svg" width="63" height="58" viewBox="0 0 63 58">
  <g id="Group_68" data-name="Group 68" transform="translate(-297 -349)">
    <g id="Path_52" data-name="Path 52" transform="translate(297 349)" fill="#00afd3">
      <path d="M 31.5 56.5 C 27.43448066711426 56.5 23.49233055114746 55.76763916015625 19.78306007385254 54.32326889038086 C 16.20696067810059 52.93075180053711 12.99691963195801 50.93872833251953 10.24209976196289 48.40254974365234 C 7.496119976043701 45.8745002746582 5.341619968414307 42.93371963500977 3.838459968566895 39.66189956665039 C 2.286770105361938 36.28445053100586 1.5 32.69726943969727 1.5 29 C 1.5 25.30273056030273 2.286770105361938 21.71554946899414 3.838459968566895 18.33810043334961 C 5.341619968414307 15.06628036499023 7.496119976043701 12.1254997253418 10.24209976196289 9.597450256347656 C 12.99691963195801 7.061270236968994 16.20696067810059 5.069250106811523 19.78306007385254 3.676729917526245 C 23.49233055114746 2.232359886169434 27.43448066711426 1.5 31.5 1.5 C 35.56552124023438 1.5 39.50767135620117 2.232359886169434 43.21694183349609 3.676729917526245 C 46.79304122924805 5.069250106811523 50.00307846069336 7.061270236968994 52.75790023803711 9.597450256347656 C 55.50387954711914 12.1254997253418 57.65837860107422 15.06628036499023 59.16154098510742 18.33810043334961 C 60.71323013305664 21.71554946899414 61.5 25.30273056030273 61.5 29 C 61.5 32.03015899658203 60.96596908569336 35.00407028198242 59.91275024414062 37.83911895751953 C 58.89007949829102 40.59194183349609 57.39569854736328 43.17073822021484 55.47111892700195 45.50389099121094 C 53.55762100219727 47.8236198425293 51.26203155517578 49.84909820556641 48.64810943603516 51.5240592956543 C 45.98809051513672 53.22856140136719 43.05640029907227 54.53205108642578 39.93447113037109 55.39830017089844 C 37.34194946289062 56.11911010742188 34.42560958862305 56.5 31.5 56.5 Z" stroke="none"/>
      <path d="M 31.5 3 C 27.62143325805664 3 23.86241149902344 3.697967529296875 20.32734298706055 5.074501037597656 C 16.92615509033203 6.398910522460938 13.87480163574219 8.291942596435547 11.2580680847168 10.70100021362305 C 8.659011840820312 13.09377670288086 6.62127685546875 15.87396621704102 5.201488494873047 18.96432113647461 C 3.740688323974609 22.1439323425293 3 25.52043151855469 3 29 C 3 32.47956848144531 3.740688323974609 35.85606384277344 5.201488494873047 39.03567504882812 C 6.62127685546875 42.12603378295898 8.659011840820312 44.90622329711914 11.2580680847168 47.29899978637695 C 13.87480163574219 49.70805358886719 16.92615509033203 51.60108947753906 20.32734298706055 52.92549896240234 C 23.86241149902344 54.30203247070312 27.62143325805664 55 31.5 55 C 34.29173278808594 55 37.06912231445312 54.63806533813477 39.53342437744141 53.95291137695312 C 42.51078033447266 53.12676620483398 45.30512237548828 51.88466644287109 47.83883285522461 50.26110076904297 C 50.3212776184082 48.67037963867188 52.49984359741211 46.74868774414062 54.31399917602539 44.54940032958984 C 58.03380966186523 40.03988647460938 60 34.66300201416016 60 29 C 60 25.52043151855469 59.25931167602539 22.1439323425293 57.79851150512695 18.96432113647461 C 56.37872314453125 15.87396621704102 54.34098815917969 13.09377670288086 51.7419319152832 10.70100021362305 C 49.12519836425781 8.291942596435547 46.07384490966797 6.398910522460938 42.67265319824219 5.074501037597656 C 39.13758850097656 3.697967529296875 35.37856674194336 3 31.5 3 M 31.5 0 C 48.89696502685547 0 63 12.98374557495117 63 29 C 63 42.10118865966797 53.5634880065918 53.17327880859375 40.33553314208984 56.84368896484375 C 37.7236213684082 57.56988906860352 34.66636657714844 58 31.5 58 C 14.10303497314453 58 0 45.01625442504883 0 29 C 0 12.98374557495117 14.10303497314453 0 31.5 0 Z" stroke="none" fill="#fff"/>
    </g>
    <path id="Polygon_2" data-name="Polygon 2" d="M14,0,28,27H0Z" transform="translate(345.5 364.5) rotate(90)" fill="#fff"/>
  </g>
</svg>
