<svg id="Shared_360" data-name="Shared 360" xmlns="http://www.w3.org/2000/svg" width="57.488" height="44.673" viewBox="0 0 57.488 44.673">
  <g id="Group_40" data-name="Group 40">
    <g id="Group_33" data-name="Group 33">
      <g id="Group_32" data-name="Group 32">
        <g id="Group_31" data-name="Group 31">
          <g id="Group_30" data-name="Group 30">
            <g id="Group_29" data-name="Group 29">
              <g id="Group_28" data-name="Group 28">
                <g id="Group_27" data-name="Group 27">
                  <g id="Group_26" data-name="Group 26">
                    <path id="Path_13" data-name="Path 13" d="M4259.7,3443.1a22.337,22.337,0,0,1,0-44.673.68.68,0,0,1,0,1.359,20.977,20.977,0,1,0,20.979,20.98.68.68,0,0,1,1.36,0A22.36,22.36,0,0,1,4259.7,3443.1Z" transform="translate(-4237.36 -3398.424)" fill="#fff"/>
                  </g>
                </g>
              </g>
            </g>
          </g>
        </g>
      </g>
    </g>
    <g id="Group_34" data-name="Group 34" transform="translate(36.76 20.019)">
      <path id="Path_14" data-name="Path 14" d="M4264.405,3420.062a.7.7,0,0,1,.213-.618l6.527-6.108a.7.7,0,0,1,.987.033l6.106,6.53a.7.7,0,1,1-1.021.953l-5.63-6.021-6.019,5.632a.7.7,0,0,1-.986-.033A.691.691,0,0,1,4264.405,3420.062Z" transform="translate(-4264.396 -3413.148)" fill="#fff"/>
    </g>
    <g id="Group_35" data-name="Group 35" transform="translate(29.019 1.769)">
      <path id="Path_15" data-name="Path 15" d="M4264.779,3407.165a1.45,1.45,0,0,0-.783-.677,3.988,3.988,0,0,0-1.459-.22h-1.029a.9.9,0,0,1-.286-.033.2.2,0,0,1-.123-.13,1.226,1.226,0,0,1-.031-.326v-.555a1.143,1.143,0,0,1,.031-.31.2.2,0,0,1,.123-.13.974.974,0,0,1,.3-.033h.929a2.349,2.349,0,0,0,1.7-.514,1.745,1.745,0,0,0,.522-1.3,1.552,1.552,0,0,0-.506-1.249,2.374,2.374,0,0,0-1.565-.432,3.579,3.579,0,0,0-1.99.539l-.278.18a.573.573,0,0,1-.326.163c-.154,0-.337-.13-.557-.392a2.436,2.436,0,0,1-.251-.318.47.47,0,0,1-.091-.253c0-.205.2-.44.6-.7a4.6,4.6,0,0,1,1.271-.563,6.671,6.671,0,0,1,1.731-.188,5.014,5.014,0,0,1,1.934.343,2.777,2.777,0,0,1,1.279,1.028,3.23,3.23,0,0,1-.04,3.377,2.507,2.507,0,0,1-1.705.962v.033a2.922,2.922,0,0,1,1.908.889,3.081,3.081,0,0,1,.637,2.1,3.613,3.613,0,0,1-.972,2.651,4.034,4.034,0,0,1-2.993.987,7.411,7.411,0,0,1-1.8-.2,4.051,4.051,0,0,1-1.477-.709,2.631,2.631,0,0,1-.571-.539.821.821,0,0,1-.211-.457c0-.142.134-.337.406-.587a4.462,4.462,0,0,1,.368-.293.425.425,0,0,1,.236-.082q.113,0,.343.229a2.978,2.978,0,0,0,1.116.808,3.587,3.587,0,0,0,1.445.3,2.516,2.516,0,0,0,1.811-.571,2.193,2.193,0,0,0,.586-1.648A2.532,2.532,0,0,0,4264.779,3407.165Z" transform="translate(-4258.704 -3399.725)" fill="#fff"/>
      <path id="Path_16" data-name="Path 16" d="M4269.131,3401.553a1.837,1.837,0,0,0-.857.979,4.883,4.883,0,0,0-.286,1.843c0,.087-.011.25-.033.489h.033c.011-.01.058-.07.139-.179a.955.955,0,0,1,.253-.245,2.9,2.9,0,0,1,1-.579,4.254,4.254,0,0,1,1.3-.171,3.7,3.7,0,0,1,2,.514,3.148,3.148,0,0,1,1.232,1.436,5.269,5.269,0,0,1,.407,2.146,4.616,4.616,0,0,1-1.012,3.206,4.5,4.5,0,0,1-5.963-.024,5.149,5.149,0,0,1-1.068-3.606v-2.578a8.6,8.6,0,0,1,.367-2.7,3.282,3.282,0,0,1,1.289-1.729,4.451,4.451,0,0,1,2.536-.628,9.57,9.57,0,0,1,1.461.1,5.794,5.794,0,0,1,1.248.343,1.362,1.362,0,0,1,.449.261.416.416,0,0,1,.154.294,1.423,1.423,0,0,1-.163.587,2.078,2.078,0,0,1-.2.351.288.288,0,0,1-.236.089,1.33,1.33,0,0,1-.474-.13,6.207,6.207,0,0,0-.921-.261,6.048,6.048,0,0,0-1.184-.1A3.2,3.2,0,0,0,4269.131,3401.553Zm2.568,8.647a1.825,1.825,0,0,0,.7-.938,4.61,4.61,0,0,0,.2-1.477,2.855,2.855,0,0,0-.562-1.9,2.016,2.016,0,0,0-1.624-.661,2.369,2.369,0,0,0-1.753.628,2.634,2.634,0,0,0-.629,1.934,3.234,3.234,0,0,0,.571,2.1,2.122,2.122,0,0,0,1.729.686A2.549,2.549,0,0,0,4271.7,3410.2Z" transform="translate(-4255.981 -3399.725)" fill="#fff"/>
      <path id="Path_17" data-name="Path 17" d="M4273.954,3402.058a3.264,3.264,0,0,1,1.249-1.746,4.092,4.092,0,0,1,2.333-.587h.327a4.063,4.063,0,0,1,2.325.6,3.3,3.3,0,0,1,1.256,1.746,9.454,9.454,0,0,1,.384,2.929v1.86a9.283,9.283,0,0,1-.392,2.929,3.29,3.29,0,0,1-1.266,1.738,4.062,4.062,0,0,1-2.307.587h-.31a4.136,4.136,0,0,1-2.358-.6,3.254,3.254,0,0,1-1.249-1.754,9.678,9.678,0,0,1-.374-2.92V3405A9.507,9.507,0,0,1,4273.954,3402.058Zm1.526,6.869a2.33,2.33,0,0,0,.659,1.232,1.881,1.881,0,0,0,1.3.416h.506a1.94,1.94,0,0,0,1.305-.408,2.264,2.264,0,0,0,.668-1.232,9.656,9.656,0,0,0,.194-2.146v-1.746a9.646,9.646,0,0,0-.194-2.145,2.262,2.262,0,0,0-.668-1.232,1.935,1.935,0,0,0-1.305-.408h-.506a1.9,1.9,0,0,0-1.3.408,2.293,2.293,0,0,0-.659,1.232,9.462,9.462,0,0,0-.2,2.145v1.746A9.36,9.36,0,0,0,4275.479,3408.927Z" transform="translate(-4253.357 -3399.725)" fill="#fff"/>
    </g>
    <g id="Group_39" data-name="Group 39" transform="translate(10.772 8.67)">
      <path id="Path_18" data-name="Path 18" d="M4252.383,3416.287a6.551,6.551,0,0,1,.063-.851,5.08,5.08,0,0,1,1.463-9.984,5.191,5.191,0,0,1,5.146,4.253c.027,0,.054,0,.082,0,.2,0,.4.012.6.03a5.9,5.9,0,0,0-11.717.817,5.758,5.758,0,0,0,3.785,5.359,8.464,8.464,0,0,0-6.519,8.15v1.893a.333.333,0,0,0,.666,0v-1.893a7.828,7.828,0,0,1,6.444-7.618C4252.39,3416.388,4252.383,3416.339,4252.383,3416.287Z" transform="translate(-4245.283 -3404.801)" fill="#fff" stroke="#fff" stroke-linecap="round" stroke-linejoin="round" stroke-width="0.689"/>
      <g id="Group_38" data-name="Group 38" transform="translate(6.381 7.186)">
        <g id="Group_36" data-name="Group 36" transform="translate(2.735)">
          <g id="Path_19" data-name="Path 19" transform="translate(-4251.987 -3410.086)" fill="#fff">
            <path d="M 4257.87841796875 3421.750244140625 C 4254.53515625 3421.750244140625 4251.81494140625 3419.095458984375 4251.81494140625 3415.83203125 C 4251.81494140625 3412.56884765625 4254.53515625 3409.914306640625 4257.87841796875 3409.914306640625 C 4261.22265625 3409.914306640625 4263.943359375 3412.56884765625 4263.943359375 3415.83203125 C 4263.943359375 3419.095458984375 4261.22265625 3421.750244140625 4257.87841796875 3421.750244140625 Z M 4257.87841796875 3410.908447265625 C 4255.09326171875 3410.908447265625 4252.82763671875 3413.1171875 4252.82763671875 3415.83203125 C 4252.82763671875 3418.547119140625 4255.09326171875 3420.756103515625 4257.87841796875 3420.756103515625 C 4260.6650390625 3420.756103515625 4262.931640625 3418.547119140625 4262.931640625 3415.83203125 C 4262.931640625 3413.1171875 4260.6650390625 3410.908447265625 4257.87841796875 3410.908447265625 Z" stroke="none"/>
            <path d="M 4257.87841796875 3421.578125 C 4261.12841796875 3421.578125 4263.77099609375 3419.00048828125 4263.77099609375 3415.83203125 C 4263.77099609375 3412.6640625 4261.12841796875 3410.08642578125 4257.87841796875 3410.08642578125 C 4254.630859375 3410.08642578125 4251.9873046875 3412.6640625 4251.9873046875 3415.83203125 C 4251.9873046875 3419.00048828125 4254.630859375 3421.578125 4257.87841796875 3421.578125 M 4257.87841796875 3410.736328125 C 4260.759765625 3410.736328125 4263.10400390625 3413.0234375 4263.10400390625 3415.83203125 C 4263.10400390625 3418.642578125 4260.759765625 3420.92822265625 4257.87841796875 3420.92822265625 C 4254.9990234375 3420.92822265625 4252.6552734375 3418.642578125 4252.6552734375 3415.83203125 C 4252.6552734375 3413.0234375 4254.9990234375 3410.736328125 4257.87841796875 3410.736328125 M 4257.87841796875 3421.922607421875 C 4254.43994140625 3421.922607421875 4251.64306640625 3419.1904296875 4251.64306640625 3415.83203125 C 4251.64306640625 3412.47412109375 4254.43994140625 3409.741943359375 4257.87841796875 3409.741943359375 C 4261.3173828125 3409.741943359375 4264.115234375 3412.47412109375 4264.115234375 3415.83203125 C 4264.115234375 3419.1904296875 4261.3173828125 3421.922607421875 4257.87841796875 3421.922607421875 Z M 4257.87841796875 3411.08056640625 C 4255.1884765625 3411.08056640625 4252.99951171875 3413.212158203125 4252.99951171875 3415.83203125 C 4252.99951171875 3418.4521484375 4255.1884765625 3420.583984375 4257.87841796875 3420.583984375 C 4260.56982421875 3420.583984375 4262.759765625 3418.4521484375 4262.759765625 3415.83203125 C 4262.759765625 3413.212158203125 4260.56982421875 3411.08056640625 4257.87841796875 3411.08056640625 Z" stroke="none" fill="#fff"/>
          </g>
        </g>
        <g id="Group_37" data-name="Group 37" transform="translate(0 10.842)">
          <g id="Path_20" data-name="Path 20" transform="translate(-4249.975 -3418.06)" fill="#fff">
            <path d="M 4250.3095703125 3428.86474609375 C 4250.0302734375 3428.86474609375 4249.802734375 3428.64111328125 4249.802734375 3428.365966796875 L 4249.802734375 3426.473876953125 C 4249.802734375 3421.73974609375 4253.75 3417.88818359375 4258.6015625 3417.88818359375 C 4260.69091796875 3417.88818359375 4262.71630859375 3418.614501953125 4264.30419921875 3419.93310546875 C 4264.408203125 3420.02001953125 4264.470703125 3420.140869140625 4264.4814453125 3420.27392578125 C 4264.4921875 3420.406982421875 4264.44921875 3420.536376953125 4264.36083984375 3420.637939453125 C 4264.26611328125 3420.74853515625 4264.12646484375 3420.812255859375 4263.97802734375 3420.812255859375 C 4263.8583984375 3420.812255859375 4263.7421875 3420.77001953125 4263.6513671875 3420.693359375 C 4262.2451171875 3419.52587890625 4260.45166015625 3418.88232421875 4258.6015625 3418.88232421875 C 4254.30810546875 3418.88232421875 4250.81494140625 3422.287841796875 4250.81494140625 3426.473876953125 L 4250.81494140625 3428.365966796875 C 4250.81494140625 3428.64111328125 4250.587890625 3428.86474609375 4250.3095703125 3428.86474609375 Z" stroke="none"/>
            <path d="M 4250.3095703125 3428.692626953125 C 4250.4931640625 3428.692626953125 4250.642578125 3428.547119140625 4250.642578125 3428.365966796875 L 4250.642578125 3426.473876953125 C 4250.642578125 3422.193603515625 4254.212890625 3418.710205078125 4258.6015625 3418.710205078125 C 4260.4931640625 3418.710205078125 4262.32470703125 3419.367919921875 4263.76220703125 3420.561767578125 C 4263.82470703125 3420.6142578125 4263.9013671875 3420.64013671875 4263.97802734375 3420.64013671875 C 4264.072265625 3420.64013671875 4264.166015625 3420.60107421875 4264.23095703125 3420.525146484375 C 4264.35009765625 3420.387939453125 4264.33447265625 3420.182861328125 4264.1943359375 3420.065673828125 C 4262.63720703125 3418.772705078125 4260.65087890625 3418.060302734375 4258.6015625 3418.060302734375 C 4253.845703125 3418.060302734375 4249.97509765625 3421.834228515625 4249.97509765625 3426.473876953125 L 4249.97509765625 3428.365966796875 C 4249.97509765625 3428.547119140625 4250.12451171875 3428.692626953125 4250.3095703125 3428.692626953125 M 4250.3095703125 3429.036865234375 C 4249.93505859375 3429.036865234375 4249.630859375 3428.736083984375 4249.630859375 3428.365966796875 L 4249.630859375 3426.473876953125 C 4249.630859375 3421.644775390625 4253.6552734375 3417.716064453125 4258.6015625 3417.716064453125 C 4260.73095703125 3417.716064453125 4262.79541015625 3418.456298828125 4264.41455078125 3419.80078125 C 4264.55419921875 3419.917724609375 4264.638671875 3420.08056640625 4264.6533203125 3420.260009765625 C 4264.66748046875 3420.439697265625 4264.60986328125 3420.614013671875 4264.4912109375 3420.7509765625 C 4264.3642578125 3420.898681640625 4264.1767578125 3420.984375 4263.97802734375 3420.984375 C 4263.81787109375 3420.984375 4263.66259765625 3420.927978515625 4263.54052734375 3420.8251953125 C 4262.166015625 3419.683837890625 4260.41162109375 3419.054443359375 4258.6015625 3419.054443359375 C 4254.40283203125 3419.054443359375 4250.98681640625 3422.3828125 4250.98681640625 3426.473876953125 L 4250.98681640625 3428.365966796875 C 4250.98681640625 3428.736083984375 4250.68310546875 3429.036865234375 4250.3095703125 3429.036865234375 Z" stroke="none" fill="#fff"/>
          </g>
        </g>
      </g>
    </g>
  </g>
</svg>
