<svg xmlns="http://www.w3.org/2000/svg" width="30.234" height="30.233" viewBox="0 0 30.234 30.233">
  <g id="signs" transform="translate(0 -0.008)">
    <path id="Path_45" data-name="Path 45" d="M290.244,209.9H278.277a.945.945,0,0,1,0-1.89h11.967a.945.945,0,0,1,0,1.89Zm0,0" transform="translate(-260.956 -195.718)"/>
    <path id="Path_46" data-name="Path 46" d="M400.948,139.31a.945.945,0,0,1-.668-1.614l4.056-4.056-4.056-4.056a.945.945,0,1,1,1.337-1.336l4.724,4.724a.945.945,0,0,1,0,1.336l-4.724,4.724A.939.939,0,0,1,400.948,139.31Zm0,0" transform="translate(-376.384 -120.406)"/>
    <path id="Path_47" data-name="Path 47" d="M10.078,30.241a2.6,2.6,0,0,1-.781-.117L1.716,27.6A2.543,2.543,0,0,1,0,25.2V2.527A2.522,2.522,0,0,1,2.52.008,2.6,2.6,0,0,1,3.3.125l7.581,2.526a2.542,2.542,0,0,1,1.716,2.4V27.722A2.522,2.522,0,0,1,10.078,30.241ZM2.52,1.9a.632.632,0,0,0-.63.63V25.2a.655.655,0,0,0,.437.607l7.546,2.514a.684.684,0,0,0,.206.028.632.632,0,0,0,.63-.63V5.047a.655.655,0,0,0-.437-.607L2.725,1.925A.684.684,0,0,0,2.52,1.9Zm0,0"/>
    <path id="Path_48" data-name="Path 48" d="M44.3,10.086a.945.945,0,0,1-.945-.945V3.472A1.577,1.577,0,0,0,41.785,1.9H27.613a.945.945,0,1,1,0-1.89H41.785a3.467,3.467,0,0,1,3.464,3.464V9.141A.945.945,0,0,1,44.3,10.086Zm0,0" transform="translate(-25.093 0)"/>
    <path id="Path_49" data-name="Path 49" d="M187.316,287.418h-5.039a.945.945,0,1,1,0-1.89h5.039a1.577,1.577,0,0,0,1.574-1.575v-5.669a.945.945,0,0,1,1.89,0v5.669A3.467,3.467,0,0,1,187.316,287.418Zm0,0" transform="translate(-170.624 -260.956)"/>
  </g>
</svg>
