<svg xmlns="http://www.w3.org/2000/svg" width="23" height="23" viewBox="0 0 23 23">
  <path id="icons8-unavailable" d="M17.5,6A11.508,11.508,0,0,0,6,17.5,11.508,11.508,0,0,0,17.5,29,11.508,11.508,0,0,0,29,17.5,11.508,11.508,0,0,0,17.5,6Zm0,1.19A10.292,10.292,0,0,1,24.8,10.2a10.176,10.176,0,0,1,3.014,7.3A10.292,10.292,0,0,1,24.8,24.8a10.176,10.176,0,0,1-7.3,3.014A10.292,10.292,0,0,1,10.2,24.8,10.176,10.176,0,0,1,7.19,17.5,10.289,10.289,0,0,1,17.5,7.19Zm-.01,3.753a6.55,6.55,0,0,0,.01,13.1,6.436,6.436,0,0,0,4.62-1.923,6.548,6.548,0,0,0-4.63-11.178Zm.01,1.2a5.347,5.347,0,0,1,4.184,8.685l-7.534-7.515A5.427,5.427,0,0,1,17.5,12.147Zm-4.184,2,7.515,7.515a5.347,5.347,0,0,1-7.515-7.515Z" transform="translate(-6 -6)" fill="#1d355e" opacity="0.55"/>
</svg>
