<svg xmlns="http://www.w3.org/2000/svg" width="26.125" height="26.125" viewBox="0 0 26.125 26.125">
  <g id="users" transform="translate(0)">
    <g id="Group_62" data-name="Group 62" transform="translate(0)">
      <path id="Path_44" data-name="Path 44" d="M22.3,16.888a13.012,13.012,0,0,0-4.964-3.113,7.552,7.552,0,1,0-8.546,0A13.083,13.083,0,0,0,0,26.125H2.041a11.021,11.021,0,0,1,22.043,0h2.041A12.977,12.977,0,0,0,22.3,16.888Zm-9.237-3.826a5.511,5.511,0,1,1,5.511-5.511A5.517,5.517,0,0,1,13.062,13.063Z" transform="translate(0)"/>
    </g>
  </g>
</svg>
