<svg id="Component_36_2" data-name="Component 36 – 2" xmlns="http://www.w3.org/2000/svg" width="33.103" height="29.064" viewBox="0 0 33.103 29.064">
  <g id="Group_38" data-name="Group 38" transform="translate(0 3.015)">
    <path id="Path_29" data-name="Path 29" d="M4447.03,2832.627a.36.36,0,0,1-.2-.059l-8.3-5.417h-6.793a.414.414,0,0,1-.389-.436v-11.21a.414.414,0,0,1,.389-.436h6.793l8.3-5.418a.563.563,0,0,1,.5-.007.449.449,0,0,1,.2.378v22.164a.448.448,0,0,1-.2.378A.826.826,0,0,1,4447.03,2832.627Zm-14.792-6.347h6.4a.354.354,0,0,1,.2.059l7.807,5.094v-20.648l-7.807,5.1a.357.357,0,0,1-.2.06h-6.4Z" transform="translate(-4431.35 -2809.592)" fill="#2e2d2c"/>
  </g>
  <g id="Group_41" data-name="Group 41" transform="translate(21.106)">
    <g id="Group_39" data-name="Group 39" transform="translate(-2 6.306)">
      <path id="Path_30" data-name="Path 30" d="M4460.828,2831.154a.5.5,0,0,1-.2-.96,7.876,7.876,0,0,0-.288-14.622.5.5,0,1,1,.354-.935,8.876,8.876,0,0,1,.323,16.478A.489.489,0,0,1,4460.828,2831.154Z" transform="translate(-4460.022 -2814.604)" fill="#2e2d2c"/>
    </g>
    <g id="Group_40" data-name="Group 40" transform="translate(0.026)">
      <path id="Path_31" data-name="Path 31" d="M4464.167,2835.641a.506.506,0,0,1-.461-.274.432.432,0,0,1,.266-.586c6.1-2.308,10.044-7.633,10.046-13.562,0-6.088-4.28-11.625-10.646-13.775a.434.434,0,0,1-.291-.577.517.517,0,0,1,.644-.26c6.753,2.281,11.291,8.153,11.293,14.612,0,6.291-4.185,11.938-10.657,14.387A.545.545,0,0,1,4464.167,2835.641Z" transform="translate(-4463.048 -2806.577)" fill="#2e2d2c"/>
    </g>
  </g>
</svg>
